<?xml version="1.0" encoding="UTF-8"?>
<svg width="980px" height="680px" viewBox="0 0 980 680" version="1.1" xmlns="http://www.w3.org/2000/svg" xmlns:xlink="http://www.w3.org/1999/xlink">
    <title>WW American Express</title>
    <defs>
        <linearGradient x1="50%" y1="0%" x2="50%" y2="100%" id="linearGradient-1">
            <stop stop-color="#FFFFFF" offset="0%"></stop>
            <stop stop-color="#EDEDED" offset="100%"></stop>
        </linearGradient>
        <rect id="path-2" x="0" y="0" width="900" height="600" rx="80"></rect>
        <filter x="-6.7%" y="-10.0%" width="113.3%" height="120.0%" filterUnits="objectBoundingBox" id="filter-3">
            <feMorphology radius="2.5" operator="dilate" in="SourceAlpha" result="shadowSpreadOuter1"></feMorphology>
            <feOffset dx="0" dy="0" in="shadowSpreadOuter1" result="shadowOffsetOuter1"></feOffset>
            <feGaussianBlur stdDeviation="17.5" in="shadowOffsetOuter1" result="shadowBlurOuter1"></feGaussianBlur>
            <feColorMatrix values="0 0 0 0 0   0 0 0 0 0   0 0 0 0 0  0 0 0 0.5 0" type="matrix" in="shadowBlurOuter1"></feColorMatrix>
        </filter>
    </defs>
    <g id="WW-American-Express" stroke="none" stroke-width="1" fill="none" fill-rule="evenodd">
        <g transform="translate(40, 40)">
            <g id="Rectangle">
                <use fill="black" fill-opacity="1" filter="url(#filter-3)" xlink:href="#path-2"></use>
                <use fill="url(#linearGradient-1)" fill-rule="evenodd" xlink:href="#path-2"></use>
            </g>
            <g id="Logo" transform="translate(98, 0)" fill-rule="nonzero">
                <polygon id="logo-blue-box-small-45-9x45-a" fill="#FFFFFF" points="599.732858 599.732858 3.41060513e-14 599.732858 3.41060513e-14 0 599.732858 0"></polygon>
                <path d="M599.732858,324.844167 L599.732858,0.267141585 L3.41060513e-14,0.267141585 L3.41060513e-14,600 L599.732858,600 L599.732858,425.022262 C598.39715,425.022262 599.732858,324.844167 599.732858,324.844167" id="Path" fill="#006FCF"></path>
                <path d="M526.268923,291.451469 L571.682992,291.451469 L571.682992,185.930543 L522.261799,185.930543 L522.261799,200.62333 L512.911843,185.930543 L470.16919,185.930543 L470.16919,204.630454 L462.154942,185.930543 L383.348175,185.930543 C380.676759,185.930543 378.005343,187.266251 375.333927,187.266251 C372.662511,187.266251 371.326803,188.601959 368.655387,189.937667 C365.983972,191.273375 364.648264,191.273375 361.976848,192.609083 L361.976848,185.930543 L136.242208,185.930543 L129.563669,203.294746 L122.885129,185.930543 L69.4568121,185.930543 L69.4568121,204.630454 L61.4425646,185.930543 L18.699911,185.930543 L3.41060513e-14,231.344613 L3.41060513e-14,291.451469 L30.7212823,291.451469 L36.064114,276.758682 L46.7497774,276.758682 L52.0926091,291.451469 L287.177204,291.451469 L287.177204,278.09439 L296.527159,291.451469 L361.976848,291.451469 L361.976848,283.437222 C363.312556,284.77293 365.983972,284.77293 367.319679,286.108638 C368.655387,287.444346 371.326803,287.444346 372.662511,288.780053 C375.333927,290.115761 378.005343,290.115761 380.676759,290.115761 L428.762244,290.115761 L434.105076,275.422974 L444.790739,275.422974 L450.133571,290.115761 L515.583259,290.115761 L515.583259,276.758682 L526.268923,291.451469 L526.268923,291.451469 Z M599.732858,425.022262 L599.732858,326.179875 L232.413179,326.179875 L223.063224,339.536955 L213.713268,326.179875 L106.856634,326.179875 L106.856634,431.700801 L213.713268,431.700801 L223.063224,418.343722 L232.413179,431.700801 L299.198575,431.700801 L299.198575,408.993767 L296.527159,408.993767 C305.877115,408.993767 313.891362,407.658059 320.569902,404.986643 L320.569902,433.036509 L368.655387,433.036509 L368.655387,419.67943 L378.005343,433.036509 L577.025824,433.036509 C585.040071,430.365093 593.054319,429.029386 599.732858,425.022262 L599.732858,425.022262 Z" id="Shape" fill="#FFFFFF"></path>
                <path d="M577.025824,399.643811 L540.96171,399.643811 L540.96171,414.336598 L575.690116,414.336598 C590.382903,414.336598 599.732858,404.986643 599.732858,391.629564 C599.732858,378.272484 591.718611,371.593945 578.361532,371.593945 L562.333037,371.593945 C558.325913,371.593945 555.654497,368.922529 555.654497,364.915405 C555.654497,360.908281 558.325913,358.236866 562.333037,358.236866 L593.054319,358.236866 L599.732858,343.544078 L563.668744,343.544078 C548.975957,343.544078 539.626002,352.894034 539.626002,364.915405 C539.626002,378.272484 547.640249,384.951024 560.997329,384.951024 L577.025824,384.951024 C581.032947,384.951024 583.704363,387.62244 583.704363,391.629564 C585.040071,396.972395 582.368655,399.643811 577.025824,399.643811 L577.025824,399.643811 Z M511.576135,399.643811 L475.512021,399.643811 L475.512021,414.336598 L510.240427,414.336598 C524.933215,414.336598 534.28317,404.986643 534.28317,391.629564 C534.28317,378.272484 526.268923,371.593945 512.911843,371.593945 L496.883348,371.593945 C492.876224,371.593945 490.204809,368.922529 490.204809,364.915405 C490.204809,360.908281 492.876224,358.236866 496.883348,358.236866 L527.60463,358.236866 L534.28317,343.544078 L498.219056,343.544078 C483.526269,343.544078 474.176313,352.894034 474.176313,364.915405 C474.176313,378.272484 482.190561,384.951024 495.54764,384.951024 L511.576135,384.951024 C515.583259,384.951024 518.254675,387.62244 518.254675,391.629564 C519.590383,396.972395 515.583259,399.643811 511.576135,399.643811 L511.576135,399.643811 Z M464.826358,356.901158 L464.826358,342.20837 L408.726625,342.20837 L408.726625,413.00089 L464.826358,413.00089 L464.826358,398.308103 L424.75512,398.308103 L424.75512,383.615316 L463.49065,383.615316 L463.49065,368.922529 L424.75512,368.922529 L424.75512,355.56545 L464.826358,355.56545 L464.826358,356.901158 L464.826358,356.901158 Z M373.998219,356.901158 C380.676759,356.901158 383.348175,360.908281 383.348175,364.915405 C383.348175,368.922529 380.676759,372.929653 373.998219,372.929653 L353.9626,372.929653 L353.9626,355.56545 L373.998219,356.901158 L373.998219,356.901158 Z M353.9626,387.62244 L361.976848,387.62244 L383.348175,413.00089 L403.383793,413.00089 L379.341051,386.286732 C391.362422,383.615316 398.040962,375.601069 398.040962,364.915405 C398.040962,351.558326 388.691006,342.20837 373.998219,342.20837 L336.598397,342.20837 L336.598397,413.00089 L352.626892,413.00089 L353.9626,387.62244 Z M311.219947,366.251113 C311.219947,371.593945 308.548531,375.601069 301.869991,375.601069 L280.498664,375.601069 L280.498664,356.901158 L300.534283,356.901158 C307.212823,356.901158 311.219947,360.908281 311.219947,366.251113 L311.219947,366.251113 Z M264.470169,342.20837 L264.470169,413.00089 L280.498664,413.00089 L280.498664,388.958148 L301.869991,388.958148 C316.562778,388.958148 327.248442,379.608192 327.248442,364.915405 C327.248442,351.558326 317.898486,340.872663 303.205699,340.872663 L264.470169,342.20837 L264.470169,342.20837 Z M240.427427,413.00089 L260.463045,413.00089 L232.413179,376.936776 L260.463045,342.20837 L240.427427,342.20837 L223.063224,364.915405 L205.69902,342.20837 L185.663402,342.20837 L213.713268,376.936776 L185.663402,411.665183 L205.69902,411.665183 L223.063224,388.958148 L240.427427,413.00089 L240.427427,413.00089 Z M180.32057,356.901158 L180.32057,342.20837 L124.220837,342.20837 L124.220837,413.00089 L180.32057,413.00089 L180.32057,398.308103 L140.249332,398.308103 L140.249332,383.615316 L178.984862,383.615316 L178.984862,368.922529 L140.249332,368.922529 L140.249332,355.56545 L180.32057,355.56545 L180.32057,356.901158 L180.32057,356.901158 Z M504.897596,231.344613 L532.947462,274.087266 L552.983081,274.087266 L552.983081,203.294746 L536.954586,203.294746 L536.954586,250.044524 L532.947462,243.365984 L507.569012,203.294746 L486.197685,203.294746 L486.197685,274.087266 L502.22618,274.087266 L502.22618,226.001781 L504.897596,231.344613 L504.897596,231.344613 Z M435.440784,230.008905 L440.783615,215.316118 L446.126447,230.008905 L452.804987,246.0374 L428.762244,246.0374 L435.440784,230.008905 L435.440784,230.008905 Z M463.49065,274.087266 L480.854853,274.087266 L450.133571,203.294746 L428.762244,203.294746 L398.040962,274.087266 L415.405165,274.087266 L422.083704,259.394479 L456.81211,259.394479 L463.49065,274.087266 L463.49065,274.087266 Z M388.691006,274.087266 L395.369546,259.394479 L391.362422,259.394479 C379.341051,259.394479 372.662511,251.380232 372.662511,239.35886 L372.662511,238.023152 C372.662511,226.001781 379.341051,217.987533 391.362422,217.987533 L408.726625,217.987533 L408.726625,203.294746 L390.026714,203.294746 C368.655387,203.294746 356.634016,217.987533 356.634016,238.023152 L356.634016,239.35886 C356.634016,260.730187 368.655387,274.087266 388.691006,274.087266 Z M328.58415,274.087266 L344.612645,274.087266 L344.612645,204.630454 L328.58415,204.630454 L328.58415,274.087266 Z M293.855744,217.987533 C300.534283,217.987533 303.205699,221.994657 303.205699,226.001781 C303.205699,230.008905 300.534283,234.016028 293.855744,234.016028 L273.820125,234.016028 L273.820125,216.651825 L293.855744,217.987533 L293.855744,217.987533 Z M273.820125,248.708816 L281.834372,248.708816 L303.205699,274.087266 L323.241318,274.087266 L299.198575,247.373108 C311.219947,244.701692 317.898486,236.687444 317.898486,226.001781 C317.898486,212.644702 308.548531,203.294746 293.855744,203.294746 L256.455922,203.294746 L256.455922,274.087266 L272.484417,274.087266 L273.820125,248.708816 Z M244.43455,217.987533 L244.43455,203.294746 L188.334817,203.294746 L188.334817,274.087266 L244.43455,274.087266 L244.43455,259.394479 L204.363313,259.394479 L204.363313,244.701692 L243.098842,244.701692 L243.098842,230.008905 L204.363313,230.008905 L204.363313,216.651825 L244.43455,216.651825 L244.43455,217.987533 L244.43455,217.987533 Z M122.885129,274.087266 L137.577916,274.087266 L157.613535,216.651825 L157.613535,274.087266 L173.64203,274.087266 L173.64203,203.294746 L146.927872,203.294746 L130.899377,251.380232 L114.870882,203.294746 L88.1567231,203.294746 L88.1567231,274.087266 L104.185218,274.087266 L104.185218,216.651825 L122.885129,274.087266 Z M36.064114,230.008905 L41.4069457,215.316118 L46.7497774,230.008905 L53.428317,246.0374 L29.3855744,246.0374 L36.064114,230.008905 L36.064114,230.008905 Z M64.1139804,274.087266 L81.4781834,274.087266 L50.7569012,203.294746 L30.7212823,203.294746 L3.41060513e-14,274.087266 L17.364203,274.087266 L24.0427427,259.394479 L58.7711487,259.394479 L64.1139804,274.087266 Z" id="Shape" fill="#006FCF"></path>
            </g>
        </g>
    </g>
</svg>