<?xml version="1.0" encoding="UTF-8"?>
<svg width="980px" height="680px" viewBox="0 0 980 680" version="1.1" xmlns="http://www.w3.org/2000/svg" xmlns:xlink="http://www.w3.org/1999/xlink">
    <title>WW shoppay</title>
    <defs>
        <linearGradient x1="50%" y1="0%" x2="50%" y2="100%" id="linearGradient-1">
            <stop stop-color="#FFFFFF" offset="0%"></stop>
            <stop stop-color="#EDEDED" offset="100%"></stop>
        </linearGradient>
        <rect id="path-2" x="0" y="2.84217094e-14" width="900" height="600" rx="80"></rect>
        <filter x="-6.7%" y="-10.0%" width="113.3%" height="120.0%" filterUnits="objectBoundingBox" id="filter-4">
            <feMorphology radius="2.5" operator="dilate" in="SourceAlpha" result="shadowSpreadOuter1"></feMorphology>
            <feOffset dx="0" dy="0" in="shadowSpreadOuter1" result="shadowOffsetOuter1"></feOffset>
            <feGaussianBlur stdDeviation="17.5" in="shadowOffsetOuter1" result="shadowBlurOuter1"></feGaussianBlur>
            <feColorMatrix values="0 0 0 0 0   0 0 0 0 0   0 0 0 0 0  0 0 0 0.5 0" type="matrix" in="shadowBlurOuter1"></feColorMatrix>
        </filter>
    </defs>
    <g id="WW-shoppay" stroke="none" stroke-width="1" fill="none" fill-rule="evenodd">
        <g transform="translate(40, 40)">
            <mask id="mask-3" fill="white">
                <use xlink:href="#path-2"></use>
            </mask>
            <g id="Rectangle">
                <use fill="black" fill-opacity="1" filter="url(#filter-4)" xlink:href="#path-2"></use>
                <use fill="url(#linearGradient-1)" fill-rule="evenodd" xlink:href="#path-2"></use>
            </g>
            <g id="Logo" mask="url(#mask-3)" fill="#5A31F4" fill-rule="nonzero">
                <g transform="translate(50, 205)">
                    <path d="M205.447036,60.5488368 C199.015903,47.0562742 186.822384,38.3406208 168.44777,38.3406208 C162.80799,38.4388897 157.266106,39.8315589 152.249562,42.4103282 C147.233203,44.9894691 142.875934,48.6863492 139.514357,53.2158214 L138.843751,54.0328094 L138.843751,1.15231645 C138.843751,0.846703864 138.722633,0.553626597 138.506404,0.337529737 C138.290361,0.121427305 137.997041,0 137.69146,0 L111.712058,0 C111.410192,0.00549135578 111.12263,0.129308323 110.911046,0.344815383 C110.69909,0.560323372 110.580758,0.850300246 110.580758,1.15231645 L110.580758,152.838575 C110.580758,153.138583 110.700204,153.426145 110.912346,153.638287 C111.124488,153.850614 111.41205,153.969874 111.712058,153.969874 L139.535348,153.969874 C139.8374,153.969874 140.127191,153.851543 140.342862,153.639587 C140.558162,153.428002 140.682067,153.14044 140.68764,152.838575 L140.68764,88.1624001 C140.68764,75.5917819 149.06799,66.6873927 162.476773,66.6873927 C177.142432,66.6873927 180.851016,78.7553348 180.851016,91.053438 L180.851016,152.838575 C180.851016,153.138583 180.97009,153.426145 181.182232,153.638287 C181.394374,153.850614 181.682307,153.969874 181.982316,153.969874 L209.741889,153.969874 C210.044684,153.969874 210.334475,153.851543 210.54996,153.639587 C210.765446,153.428002 210.889908,153.14044 210.895481,152.838575 L210.895481,87.3662176 C210.895481,85.1244233 210.895481,82.9244258 210.601974,80.7875879 C210.124562,73.7846742 208.378385,66.9266562 205.447036,60.5488368 Z" id="Path"></path>
                    <path d="M66.5206205,83.0299395 C66.5206205,83.0299395 52.3576373,79.6986421 47.14084,78.3578009 C41.923857,77.0169597 32.8101124,74.1675329 32.8101124,67.2745913 C32.8101124,60.3816496 40.1639333,58.1816521 47.6227107,58.1816521 C55.0813022,58.1816521 63.3780589,59.9835584 64.0274882,68.2593237 C64.0536808,68.55766 64.1909601,68.8348192 64.4120187,69.0369299 C64.6332631,69.2386691 64.9221254,69.3497557 65.2215762,69.3488269 L92.6465895,69.2440562 C92.808018,69.2444278 92.9677746,69.2115476 93.1158282,69.1474592 C93.2638817,69.0833708 93.3970742,68.9893744 93.5072319,68.8712288 C93.6173897,68.7534547 93.7020979,68.6139463 93.7557835,68.461806 C93.8094692,68.3094799 93.8315751,68.1478656 93.819872,67.9868086 C92.1229221,41.504731 68.887991,32.0348777 47.4549662,32.0348777 C22.0412146,32.0348777 3.45765378,48.7957639 3.45765378,67.2745913 C3.45765378,80.7671539 7.27076608,93.4217372 37.2517184,102.22117 C42.5104982,103.750561 49.6549637,105.740832 55.898476,107.47995 C63.3988644,109.575177 67.4423792,112.73873 67.4423792,117.724994 C67.4423792,123.507442 59.062029,127.529965 50.8282462,127.529965 C38.9070572,127.529965 30.4427419,123.10935 29.75133,115.168702 C29.7152919,114.878354 29.5739259,114.610855 29.3536103,114.41766 C29.1334805,114.224466 28.8500054,114.118953 28.5570563,114.121182 L1.19493321,114.246944 C1.03451711,114.246944 0.875748736,114.279081 0.728059297,114.341869 C0.580371716,114.404471 0.446813309,114.496053 0.335353332,114.611598 C0.223895213,114.726771 0.136804811,114.863493 0.0793150841,115.013218 C0.0218253577,115.16313 -0.00489302973,115.322886 0,115.4832 C1.25780302,140.477869 25.3935033,153.949255 47.8952258,153.949255 C81.4169982,153.949255 96.5651788,135.093513 96.5651788,117.431674 C96.6065107,109.134917 94.6998338,90.2370072 66.5206205,83.0299395 Z" id="Path"></path>
                    <path d="M419.337025,38.2986382 C405.406617,38.2986382 393.735095,46.0085679 386.213529,55.311234 L386.213529,39.3881413 C386.213529,39.0916627 386.096498,38.8068872 385.888443,38.5954883 C385.684103,38.3839037 385.399885,38.2622286 385.102663,38.2570272 L359.082765,38.2570272 C358.783686,38.2570272 358.493895,38.3759158 358.282125,38.5880578 C358.070354,38.8003855 357.949608,39.088319 357.949608,39.3881413 L357.949608,188.141262 C357.957038,188.436626 358.079642,188.720844 358.291413,188.927042 C358.503183,189.135097 358.787401,189.252128 359.082765,189.252128 L386.926861,189.252128 C387.220368,189.252128 387.502728,189.135097 387.710783,188.927042 C387.918839,188.718987 388.03587,188.434768 388.03587,188.141262 L388.03587,139.241241 L388.455695,139.241241 C392.87501,145.987244 404.9645,154.074645 420.763689,154.074645 C450.469135,154.074645 475.235144,129.436085 475.235144,96.1448449 C475.257421,64.1944461 450.617746,38.2986382 419.337025,38.2986382 Z M416.760485,125.727873 C410.897787,125.873512 405.118684,124.268329 400.171801,121.117408 C395.224918,117.966115 391.325742,113.412122 388.975833,108.036312 C386.627782,102.660315 385.933026,96.706408 386.984448,90.9343635 C388.032154,85.1623191 390.779597,79.8340637 394.87011,75.6296776 C398.962481,71.4247343 404.214016,68.5346253 409.955966,67.3279054 C415.69606,66.1211855 421.666499,66.6522834 427.103798,68.853767 C432.542954,71.0550649 437.200046,74.8269934 440.486203,79.6878678 C443.770502,84.5489279 445.53154,90.278061 445.548259,96.1448449 C445.607703,99.9795615 444.909233,103.788828 443.495572,107.353631 C442.081912,110.918433 439.975353,114.168552 437.300358,116.917295 C434.627221,119.666038 431.435804,121.859348 427.908154,123.371277 C424.38422,124.883392 420.596502,125.684033 416.760485,125.727873 Z" id="Shape"></path>
                    <path d="M275.550478,31.7634771 C249.591882,31.7634771 236.644164,40.5839012 226.250694,47.6445873 L225.936754,47.8539428 C225.401755,48.22064 225.024655,48.7764445 224.881617,49.4095266 C224.736721,50.0427945 224.837034,50.7067133 225.16212,51.2690196 L235.42927,68.9514787 C235.620607,69.2825093 235.884391,69.5669132 236.198331,69.7840708 C236.514129,70.0014141 236.872653,70.1464955 237.25161,70.2087262 C237.62128,70.2754154 238.000238,70.2592539 238.362476,70.1613565 C238.724715,70.0634592 239.060947,69.886798 239.347023,69.6428905 L240.162525,68.9726557 C245.505084,64.4890671 254.074356,58.4968928 274.816712,56.862731 C286.360058,55.9411582 296.333702,58.9579579 303.68808,65.8299083 C311.774367,73.2886856 316.615364,85.3354507 316.615364,98.0528221 C316.615364,121.455312 302.827995,136.162768 280.683124,136.456274 C262.433715,136.351504 250.177037,126.839668 250.177037,112.781455 C250.177037,105.322678 253.550503,100.462175 260.130247,95.6014865 C260.631809,95.2422199 260.986617,94.7133511 261.129655,94.1125918 C261.272693,93.5118326 261.192814,92.8796793 260.904881,92.3331629 L251.687295,74.9016704 C251.516392,74.5897734 251.286045,74.3144718 251.009258,74.0915556 C250.73247,73.8686394 250.414814,73.7025668 250.073009,73.6028117 C249.723774,73.4989699 249.35782,73.4696193 248.997439,73.5162459 C248.6352,73.5632441 248.287822,73.6854765 247.977597,73.8753268 C237.62871,80.0138828 224.931773,91.2436598 225.622813,112.823438 C226.460607,140.290248 249.298376,161.262208 278.985246,162.121364 L280.473212,162.121364 L282.505465,162.121364 C317.785675,160.968887 343.263143,134.78013 343.263143,99.2680871 C343.263143,66.6678876 319.503987,31.7634771 275.550478,31.7634771 Z" id="Path"></path>
                    <path d="M584.95636,48.5241776 L567.271671,48.5241776 C566.859276,48.5295647 566.461742,48.6969377 566.168236,48.9902583 C565.872872,49.2837647 565.705685,49.6803698 565.703827,50.0955513 L565.703827,87.1997735 C565.705685,87.6130973 565.87473,88.0071018 566.170094,88.2972644 C566.4636,88.5874271 566.859276,88.7503417 567.271671,88.7503417 L584.95636,88.7503417 C595.725072,88.7503417 603.666463,80.2650351 603.666463,68.6371668 C603.666463,57.0092985 595.725072,48.5241776 584.95636,48.5241776 Z" id="Path"></path>
                    <path d="M639.282905,114.163164 C639.282905,119.54752 643.828538,122.543515 651.747638,122.543515 C662.51635,122.543515 668.884323,116.719085 668.884323,106.390075 L668.884323,103.415258 L652.754476,104.253237 C644.246506,104.672134 639.282905,108.213158 639.282905,114.163164 Z" id="Path"></path>
                    <path d="M770.225761,0.335971699 L532.639776,0.335971699 C528.744315,0.335971699 524.882291,1.10421299 521.284051,2.59641057 C517.682096,4.08861188 514.410801,6.27573598 511.657785,9.03276402 C508.901054,11.7898106 506.716475,15.0627412 505.226652,18.6645474 C503.73497,22.2663166 502.971482,26.126297 502.975184,30.0239874 L502.975184,160.088368 C502.975184,167.958426 506.09974,175.506555 511.663358,181.073331 C517.226976,186.640293 524.77269,189.770408 532.639776,189.776102 L770.225761,189.776102 C774.128653,189.787127 777.996249,189.029212 781.605635,187.544961 C785.213163,186.06071 788.493747,183.878546 791.259766,181.125531 C794.022069,178.371958 796.219652,175.100476 797.720621,171.497778 C799.219733,167.895266 799.992509,164.032499 799.99997,160.13035 L799.99997,30.0657842 C800.005513,26.1558334 799.242025,22.2826638 797.748486,18.6691915 C796.254947,15.0557936 794.06108,11.7732591 791.295061,9.01037951 C788.529042,6.24753707 785.242885,4.05887113 781.627926,2.57023649 C778.012968,1.08159256 774.137941,0.322339853 770.225761,0.335971699 Z M585.855455,103.353027 L567.167644,103.353027 C566.751533,103.353027 566.353999,103.518357 566.056778,103.812978 C565.763271,104.107784 565.596084,104.507548 565.596084,104.924401 L565.596084,131.532055 C565.596084,131.948722 565.430755,132.348485 565.137248,132.643106 C564.841884,132.937913 564.44435,133.103428 564.026382,133.103428 L550.866894,133.103428 C550.454499,133.098041 550.055107,132.930668 549.761601,132.636976 C549.468094,132.343841 549.304622,131.947236 549.297192,131.532055 L549.297192,35.5549108 C549.297192,35.138429 549.462521,34.7386659 549.759743,34.4438592 C550.053249,34.1492382 550.450783,33.9837229 550.866894,33.9837229 L585.855455,33.9837229 C605.676424,33.9837229 619.85947,48.4190354 619.85947,68.6787778 C619.85947,88.9385202 605.780452,103.394638 585.963198,103.394638 L585.855455,103.353027 Z M684.327099,131.511249 C684.330561,131.719304 684.293408,131.925688 684.21353,132.118882 C684.135509,132.31189 684.020336,132.487808 683.87544,132.635862 C683.72683,132.783915 683.55407,132.901689 683.360875,132.981939 C683.171397,133.062003 682.963342,133.103428 682.755286,133.103428 L670.331421,133.103428 C670.123366,133.103428 669.917169,133.062003 669.725832,132.981939 C669.532638,132.901689 669.35802,132.783915 669.213125,132.635862 C669.068229,132.487808 668.951198,132.31189 668.875035,132.118882 C668.797015,131.925688 668.758004,131.719304 668.761719,131.511249 L668.761719,128.641017 C668.780296,128.388936 668.720852,128.13704 668.585244,127.923041 C668.453352,127.70867 668.254585,127.543154 668.016808,127.451201 C667.782746,127.359434 667.524534,127.346245 667.281184,127.413491 C667.035976,127.480366 666.820491,127.624333 666.666307,127.823843 C662.956609,131.867358 656.92301,134.800378 647.306032,134.800378 C633.145277,134.800378 623.777223,127.425752 623.777223,114.687389 C623.641615,111.581423 624.282499,108.490503 625.644146,105.694948 C627.003935,102.89995 629.043619,100.488739 631.573718,98.6808886 C636.684073,94.8467293 644.603172,92.8564588 656.356431,92.3953937 L668.823021,91.976497 L668.823021,88.3307019 C668.823021,80.9768809 663.877996,77.8553105 655.936605,77.8553105 C647.997072,77.8553105 642.988887,80.6627548 641.818577,85.251114 C641.723837,85.5750856 641.52507,85.8585608 641.25014,86.0560274 C640.978926,86.2536798 640.646409,86.3536206 640.308319,86.3404314 L628.010773,86.3404314 C627.784142,86.3461901 627.559368,86.3019783 627.351313,86.2116973 C627.146973,86.1210447 626.959352,85.9861803 626.808883,85.8163925 C626.660273,85.6464188 626.548814,85.4463515 626.485655,85.2290082 C626.420638,85.0118506 626.403919,84.7835472 626.439214,84.5597022 C628.283846,73.6650425 637.291519,65.3892772 656.505042,65.3892772 C676.911166,65.3892772 684.263686,74.8803076 684.263686,93.0028405 L684.327099,131.511249 Z M761.721506,69.244242 L734.066889,143.013356 C727.780651,160.151156 716.781593,164.551151 704.73297,164.551151 C702.464797,164.606509 700.198482,164.331207 698.00833,163.734163 C697.666525,163.64221 697.367446,163.440842 697.148245,163.160339 C696.934617,162.880394 696.817586,162.537103 696.81387,162.183595 L696.81387,150.974623 C696.81387,150.74019 696.864027,150.508357 696.962481,150.295843 C697.062794,150.08333 697.205832,149.895151 697.386022,149.74524 C697.56807,149.594958 697.777983,149.486657 698.004615,149.427585 C698.231246,149.368512 698.469024,149.360152 698.69937,149.40325 C700.599731,149.763631 702.527957,149.946051 704.461755,149.94828 C707.792495,150.115281 711.084225,149.159342 713.809376,147.233346 C716.530812,145.307349 718.529627,142.522754 719.482594,139.325949 L720.301812,136.748852 C720.428131,136.404075 720.428131,136.025489 720.301812,135.68034 L694.447243,69.265419 C694.367365,69.0280132 694.345073,68.7750033 694.384083,68.5275663 C694.421236,68.2799435 694.515976,68.0445811 694.657156,67.8406127 C694.803909,67.6366444 694.995246,67.469643 695.216304,67.3529835 C695.437363,67.2365097 695.684428,67.1737217 695.933351,67.1701922 L708.505827,67.1701922 C708.827198,67.1733501 709.139281,67.2725479 709.404923,67.4557107 C709.670565,67.638502 709.874904,67.8967133 709.991935,68.1969072 L727.550305,115.043684 C727.667336,115.349636 727.871675,115.613235 728.141033,115.799184 C728.412247,115.985505 728.731761,116.084888 729.058704,116.084888 C729.383791,116.084888 729.707019,115.985505 729.974519,115.799184 C730.243876,115.613235 730.451931,115.349636 730.565247,115.043684 L745.799714,68.3226691 C745.900026,68.0040846 746.102509,67.7265539 746.373723,67.5305734 C746.644938,67.3344071 746.970024,67.2301938 747.304399,67.233166 L760.192672,67.233166 C760.439738,67.2320514 760.684946,67.2900096 760.90972,67.4010962 C761.130778,67.5125543 761.32583,67.6745401 761.474441,67.8742359 C761.623052,68.0739317 761.721506,68.3055789 761.764232,68.5509725 C761.808815,68.7959946 761.793954,69.0478899 761.721506,69.2862245 L761.721506,69.244242 Z" id="Shape"></path>
                </g>
            </g>
        </g>
    </g>
</svg>