<?xml version="1.0" encoding="UTF-8"?>
<svg width="980px" height="680px" viewBox="0 0 980 680" version="1.1" xmlns="http://www.w3.org/2000/svg" xmlns:xlink="http://www.w3.org/1999/xlink">
    <title>DE Vorkasse</title>
    <defs>
        <linearGradient x1="50%" y1="0%" x2="50%" y2="100%" id="linearGradient-1">
            <stop stop-color="#FFFFFF" offset="0%"></stop>
            <stop stop-color="#EDEDED" offset="100%"></stop>
        </linearGradient>
        <rect id="path-2" x="0" y="0.00154821673" width="900" height="600" rx="80"></rect>
        <filter x="-6.7%" y="-10.0%" width="113.3%" height="120.0%" filterUnits="objectBoundingBox" id="filter-3">
            <feMorphology radius="2.5" operator="dilate" in="SourceAlpha" result="shadowSpreadOuter1"></feMorphology>
            <feOffset dx="0" dy="0" in="shadowSpreadOuter1" result="shadowOffsetOuter1"></feOffset>
            <feGaussianBlur stdDeviation="17.5" in="shadowOffsetOuter1" result="shadowBlurOuter1"></feGaussianBlur>
            <feColorMatrix values="0 0 0 0 0   0 0 0 0 0   0 0 0 0 0  0 0 0 0.5 0" type="matrix" in="shadowBlurOuter1"></feColorMatrix>
        </filter>
    </defs>
    <g id="DE-Vorkasse" stroke="none" stroke-width="1" fill="none" fill-rule="evenodd">
        <g transform="translate(40, 39.9985)">
            <g id="Rectangle">
                <use fill="black" fill-opacity="1" filter="url(#filter-3)" xlink:href="#path-2"></use>
                <use fill="url(#linearGradient-1)" fill-rule="evenodd" xlink:href="#path-2"></use>
            </g>
            <path d="M900,442.001548 L900,520.001548 C900,564.184328 864.18278,600.001548 820,600.001548 L80,600.001548 C35.81722,600.001548 0,564.184328 0,520.001548 L0,442.001548 L900,442.001548 Z" id="Path" fill="#FF6600"></path>
            <g id="Vor-Ort-kaufen" transform="translate(90.25, 8.0015)" fill-rule="nonzero">
                <g transform="translate(0, 471.9993)" fill="#FFFFFF">
                    <polygon id="Path" points="0 2 15.5 2 29.5 58 38 58 52 2 67.5 2 49.5 72 18 72"></polygon>
                    <path d="M96,73.5 C92,73.5 88.2833333,72.8 84.85,71.4 C81.4166667,70 78.45,68.0833333 75.95,65.65 C73.45,63.2166667 71.5,60.35 70.1,57.05 C68.7,53.75 68,50.2333333 68,46.5 C68,42.7666667 68.7,39.25 70.1,35.95 C71.5,32.65 73.45,29.7833333 75.95,27.35 C78.45,24.9166667 81.4166667,23 84.85,21.6 C88.2833333,20.2 92,19.5 96,19.5 C100,19.5 103.7,20.2 107.1,21.6 C110.5,23 113.45,24.9166667 115.95,27.35 C118.45,29.7833333 120.416667,32.65 121.85,35.95 C123.283333,39.25 124,42.7666667 124,46.5 C124,50.2333333 123.283333,53.75 121.85,57.05 C120.416667,60.35 118.45,63.2166667 115.95,65.65 C113.45,68.0833333 110.5,70 107.1,71.4 C103.7,72.8 100,73.5 96,73.5 Z M96,61.5 C97.8666667,61.5 99.6166667,61.1333333 101.25,60.4 C102.883333,59.6666667 104.316667,58.65 105.55,57.35 C106.783333,56.05 107.75,54.4833333 108.45,52.65 C109.15,50.8166667 109.5,48.7666667 109.5,46.5 C109.5,44.2333333 109.15,42.1833333 108.45,40.35 C107.75,38.5166667 106.783333,36.95 105.55,35.65 C104.316667,34.35 102.883333,33.3333333 101.25,32.6 C99.6166667,31.8666667 97.8666667,31.5 96,31.5 C94.1333333,31.5 92.3833333,31.8666667 90.75,32.6 C89.1166667,33.3333333 87.6833333,34.35 86.45,35.65 C85.2166667,36.95 84.25,38.5166667 83.55,40.35 C82.85,42.1833333 82.5,44.2333333 82.5,46.5 C82.5,48.7666667 82.85,50.8166667 83.55,52.65 C84.25,54.4833333 85.2166667,56.05 86.45,57.35 C87.6833333,58.65 89.1166667,59.6666667 90.75,60.4 C92.3833333,61.1333333 94.1333333,61.5 96,61.5 Z" id="Shape"></path>
                    <path d="M132,21 L146,21 L146,28.5 L146.5,28.5 C147.1,26.9 148,25.5 149.2,24.3 C150.2,23.2333333 151.533333,22.25 153.2,21.35 C154.866667,20.45 156.966667,20 159.5,20 L165.5,20 L165.5,33.5 L158,33.5 C154.2,33.5 151.25,34.5333333 149.15,36.6 C147.05,38.6666667 146,41.4666667 146,45 L146,72 L132,72 L132,21 Z" id="Path"></path>
                    <path d="M237,74 C231.466667,74 226.366667,73.0333333 221.7,71.1 C217.033333,69.1666667 212.966667,66.5333333 209.5,63.2 C206.033333,59.8666667 203.333333,55.95 201.4,51.45 C199.466667,46.95 198.5,42.1333333 198.5,37 C198.5,31.8666667 199.466667,27.05 201.4,22.55 C203.333333,18.05 206.033333,14.1333333 209.5,10.8 C212.966667,7.46666667 217.033333,4.83333333 221.7,2.9 C226.366667,0.966666667 231.466667,0 237,0 C242.466667,0 247.55,0.966666667 252.25,2.9 C256.95,4.83333333 261.033333,7.46666667 264.5,10.8 C267.966667,14.1333333 270.666667,18.05 272.6,22.55 C274.533333,27.05 275.5,31.8666667 275.5,37 C275.5,42.1333333 274.533333,46.95 272.6,51.45 C270.666667,55.95 267.966667,59.8666667 264.5,63.2 C261.033333,66.5333333 256.95,69.1666667 252.25,71.1 C247.55,73.0333333 242.466667,74 237,74 Z M237,60 C240.266667,60 243.266667,59.4333333 246,58.3 C248.733333,57.1666667 251.1,55.5833333 253.1,53.55 C255.1,51.5166667 256.666667,49.1 257.8,46.3 C258.933333,43.5 259.5,40.4 259.5,37 C259.5,33.6 258.933333,30.5 257.8,27.7 C256.666667,24.9 255.1,22.4833333 253.1,20.45 C251.1,18.4166667 248.733333,16.8333333 246,15.7 C243.266667,14.5666667 240.266667,14 237,14 C233.733333,14 230.733333,14.5666667 228,15.7 C225.266667,16.8333333 222.9,18.4166667 220.9,20.45 C218.9,22.4833333 217.333333,24.9 216.2,27.7 C215.066667,30.5 214.5,33.6 214.5,37 C214.5,40.4 215.066667,43.5 216.2,46.3 C217.333333,49.1 218.9,51.5166667 220.9,53.55 C222.9,55.5833333 225.266667,57.1666667 228,58.3 C230.733333,59.4333333 233.733333,60 237,60 Z" id="Shape"></path>
                    <path d="M284.5,21 L298.5,21 L298.5,28.5 L299,28.5 C299.6,26.9 300.5,25.5 301.7,24.3 C302.7,23.2333333 304.033333,22.25 305.7,21.35 C307.366667,20.45 309.466667,20 312,20 L318,20 L318,33.5 L310.5,33.5 C306.7,33.5 303.75,34.5333333 301.65,36.6 C299.55,38.6666667 298.5,41.4666667 298.5,45 L298.5,72 L284.5,72 L284.5,21 Z" id="Path"></path>
                    <polygon id="Path" points="327.5 33 321 33 321 21 327.5 21 327.5 10 341.5 10 341.5 21 356 21 356 33 341.5 33 341.5 60 356.5 60 356.5 72 327.5 72"></polygon>
                    <polygon id="Path" points="392.5 2 406.5 2 406.5 40 412.5 40 426 21 441.5 21 425 44.5 443 72 427 72 414 52 406.5 52 406.5 72 392.5 72"></polygon>
                    <path d="M466,73.5 C462.733333,73.5 459.683333,72.8666667 456.85,71.6 C454.016667,70.3333333 451.533333,68.5333333 449.4,66.2 C447.266667,63.8666667 445.583333,61.0333333 444.35,57.7 C443.116667,54.3666667 442.5,50.6333333 442.5,46.5 C442.5,42.3666667 443.116667,38.6333333 444.35,35.3 C445.583333,31.9666667 447.266667,29.1333333 449.4,26.8 C451.533333,24.4666667 454.016667,22.6666667 456.85,21.4 C459.683333,20.1333333 462.733333,19.5 466,19.5 C468.8,19.5 471.183333,19.9166667 473.15,20.75 C475.116667,21.5833333 476.766667,22.5 478.1,23.5 C479.633333,24.7 480.933333,26.0333333 482,27.5 L482.5,27.5 L482.5,21 L496.5,21 L496.5,72 L482.5,72 L482.5,65.5 L482,65.5 C480.933333,66.9666667 479.633333,68.3 478.1,69.5 C476.766667,70.5 475.116667,71.4166667 473.15,72.25 C471.183333,73.0833333 468.8,73.5 466,73.5 Z M469.5,61.5 C473.3,61.5 476.416667,60.2 478.85,57.6 C481.283333,55 482.5,51.3 482.5,46.5 C482.5,41.7 481.283333,38 478.85,35.4 C476.416667,32.8 473.3,31.5 469.5,31.5 C465.966667,31.5 463,32.8 460.6,35.4 C458.2,38 457,41.7 457,46.5 C457,51.3 458.2,55 460.6,57.6 C463,60.2 465.966667,61.5 469.5,61.5 Z" id="Shape"></path>
                    <path d="M527.5,73.5 C521.233333,73.5 516.333333,71.6833333 512.8,68.05 C509.266667,64.4166667 507.5,59.0666667 507.5,52 L507.5,21 L521.5,21 L521.5,50 C521.5,53.8 522.433333,56.6666667 524.3,58.6 C526.166667,60.5333333 528.733333,61.5 532,61.5 C533.6,61.5 535.133333,61.1666667 536.6,60.5 C538.066667,59.8333333 539.35,58.9166667 540.45,57.75 C541.55,56.5833333 542.416667,55.1666667 543.05,53.5 C543.683333,51.8333333 544,50 544,48 L544,21 L558,21 L558,72 L544,72 L544,65 L543.5,65 C542.566667,66.6666667 541.333333,68.1 539.8,69.3 C538.466667,70.3666667 536.8,71.3333333 534.8,72.2 C532.8,73.0666667 530.366667,73.5 527.5,73.5 Z" id="Path"></path>
                    <polygon id="Path" points="571.5 34 565 34 565 22 571.5 22 571.5 2 600 2 600 14 585.5 14 585.5 22 597 22 597 34 585.5 34 585.5 72 571.5 72"></polygon>
                    <path d="M629.5,73.5 C625.633333,73.5 622.016667,72.8 618.65,71.4 C615.283333,70 612.366667,68.0833333 609.9,65.65 C607.433333,63.2166667 605.5,60.35 604.1,57.05 C602.7,53.75 602,50.2333333 602,46.5 C602,42.7666667 602.7,39.25 604.1,35.95 C605.5,32.65 607.433333,29.7833333 609.9,27.35 C612.366667,24.9166667 615.283333,23 618.65,21.6 C622.016667,20.2 625.633333,19.5 629.5,19.5 C633.5,19.5 637.15,20.2 640.45,21.6 C643.75,23 646.6,24.9333333 649,27.4 C651.4,29.8666667 653.25,32.7333333 654.55,36 C655.85,39.2666667 656.5,42.7666667 656.5,46.5 L656.5,49.5 L616.5,49.5 C616.766667,51.1 617.283333,52.6333333 618.05,54.1 C618.816667,55.5666667 619.783333,56.85 620.95,57.95 C622.116667,59.05 623.433333,59.9166667 624.9,60.55 C626.366667,61.1833333 627.9,61.5 629.5,61.5 C631.766667,61.5 633.616667,61.1833333 635.05,60.55 C636.483333,59.9166667 637.666667,59.2333333 638.6,58.5 C639.6,57.6333333 640.4,56.6333333 641,55.5 L656,55.5 C654.933333,58.8333333 653.266667,61.8333333 651,64.5 C650,65.6333333 648.833333,66.7333333 647.5,67.8 C646.166667,68.8666667 644.633333,69.8333333 642.9,70.7 C641.166667,71.5666667 639.183333,72.25 636.95,72.75 C634.716667,73.25 632.233333,73.5 629.5,73.5 Z M641.5,41 C641.233333,39.7333333 640.766667,38.5333333 640.1,37.4 C639.433333,36.2666667 638.583333,35.2666667 637.55,34.4 C636.516667,33.5333333 635.316667,32.8333333 633.95,32.3 C632.583333,31.7666667 631.1,31.5 629.5,31.5 C626.233333,31.5 623.516667,32.45 621.35,34.35 C619.183333,36.25 617.733333,38.4666667 617,41 L641.5,41 Z" id="Shape"></path>
                    <path d="M665,21 L679,21 L679,28 L679.5,28 C680.433333,26.4 681.666667,25 683.2,23.8 C684.533333,22.7333333 686.183333,21.75 688.15,20.85 C690.116667,19.95 692.566667,19.5 695.5,19.5 C701.766667,19.5 706.666667,21.3166667 710.2,24.95 C713.733333,28.5833333 715.5,33.9333333 715.5,41 L715.5,72 L701.5,72 L701.5,43 C701.5,39.2 700.566667,36.3333333 698.7,34.4 C696.833333,32.4666667 694.266667,31.5 691,31.5 C689.4,31.5 687.866667,31.8333333 686.4,32.5 C684.933333,33.1666667 683.65,34.0833333 682.55,35.25 C681.45,36.4166667 680.583333,37.8333333 679.95,39.5 C679.316667,41.1666667 679,43 679,45 L679,72 L665,72 L665,21 Z" id="Path"></path>
                </g>
                <g id="location" transform="translate(202.75, 0)" fill="#FF6600" fill-opacity="0.5">
                    <path d="M159.392708,0 C53.125,0 0,79.6875 0,159.375 C0,239.0625 159.392708,425 159.392708,425 C159.392708,425 318.75,239.0625 318.75,159.375 C318.75,79.6875 265.625,0 159.392708,0 Z M159.375,212.5 C130.032292,212.5 106.25,188.717708 106.25,159.375 C106.25,130.032292 130.032292,106.25 159.375,106.25 C188.717708,106.25 212.5,130.032292 212.5,159.375 C212.5,188.717708 188.717708,212.5 159.375,212.5 Z" id="Shape"></path>
                </g>
            </g>
        </g>
    </g>
</svg>