<?xml version="1.0" encoding="UTF-8"?>
<svg width="980px" height="680px" viewBox="0 0 980 680" version="1.1" xmlns="http://www.w3.org/2000/svg" xmlns:xlink="http://www.w3.org/1999/xlink">
    <title>DE Vorkasse</title>
    <defs>
        <linearGradient x1="50%" y1="0%" x2="50%" y2="100%" id="linearGradient-1">
            <stop stop-color="#FFFFFF" offset="0%"></stop>
            <stop stop-color="#EDEDED" offset="100%"></stop>
        </linearGradient>
        <rect id="path-2" x="0" y="0.00154821673" width="900" height="600" rx="80"></rect>
        <filter x="-6.7%" y="-10.0%" width="113.3%" height="120.0%" filterUnits="objectBoundingBox" id="filter-3">
            <feMorphology radius="2.5" operator="dilate" in="SourceAlpha" result="shadowSpreadOuter1"></feMorphology>
            <feOffset dx="0" dy="0" in="shadowSpreadOuter1" result="shadowOffsetOuter1"></feOffset>
            <feGaussianBlur stdDeviation="17.5" in="shadowOffsetOuter1" result="shadowBlurOuter1"></feGaussianBlur>
            <feColorMatrix values="0 0 0 0 0   0 0 0 0 0   0 0 0 0 0  0 0 0 0.5 0" type="matrix" in="shadowBlurOuter1"></feColorMatrix>
        </filter>
    </defs>
    <g id="DE-Vorkasse" stroke="none" stroke-width="1" fill="none" fill-rule="evenodd">
        <g transform="translate(40, 39.9985)">
            <g id="Rectangle">
                <use fill="black" fill-opacity="1" filter="url(#filter-3)" xlink:href="#path-2"></use>
                <use fill="url(#linearGradient-1)" fill-rule="evenodd" xlink:href="#path-2"></use>
            </g>
            <path d="M900,442.001548 L900,520.001548 C900,564.184328 864.18278,600.001548 820,600.001548 L80,600.001548 C35.81722,600.001548 0,564.184328 0,520.001548 L0,442.001548 L900,442.001548 Z" id="Path" fill="#FF6600"></path>
            <g id="auf-Rechnung" transform="translate(114, 0.0008)">
                <g transform="translate(0, 482)" fill="#FFFFFF" fill-rule="nonzero">
                    <path d="M23.5,71.5 C20.2333333,71.5 17.1833333,70.8666667 14.35,69.6 C11.5166667,68.3333333 9.03333333,66.5333333 6.9,64.2 C4.76666667,61.8666667 3.08333333,59.0333333 1.85,55.7 C0.616666667,52.3666667 0,48.6333333 0,44.5 C0,40.3666667 0.616666667,36.6333333 1.85,33.3 C3.08333333,29.9666667 4.76666667,27.1333333 6.9,24.8 C9.03333333,22.4666667 11.5166667,20.6666667 14.35,19.4 C17.1833333,18.1333333 20.2333333,17.5 23.5,17.5 C26.3,17.5 28.6833333,17.9166667 30.65,18.75 C32.6166667,19.5833333 34.2666667,20.5 35.6,21.5 C37.1333333,22.7 38.4333333,24.0333333 39.5,25.5 L40,25.5 L40,19 L54,19 L54,70 L40,70 L40,63.5 L39.5,63.5 C38.4333333,64.9666667 37.1333333,66.3 35.6,67.5 C34.2666667,68.5 32.6166667,69.4166667 30.65,70.25 C28.6833333,71.0833333 26.3,71.5 23.5,71.5 Z M27,59.5 C30.8,59.5 33.9166667,58.2 36.35,55.6 C38.7833333,53 40,49.3 40,44.5 C40,39.7 38.7833333,36 36.35,33.4 C33.9166667,30.8 30.8,29.5 27,29.5 C23.4666667,29.5 20.5,30.8 18.1,33.4 C15.7,36 14.5,39.7 14.5,44.5 C14.5,49.3 15.7,53 18.1,55.6 C20.5,58.2 23.4666667,59.5 27,59.5 Z" id="Shape"></path>
                    <path d="M85,71.5 C78.7333333,71.5 73.8333333,69.6833333 70.3,66.05 C66.7666667,62.4166667 65,57.0666667 65,50 L65,19 L79,19 L79,48 C79,51.8 79.9333333,54.6666667 81.8,56.6 C83.6666667,58.5333333 86.2333333,59.5 89.5,59.5 C91.1,59.5 92.6333333,59.1666667 94.1,58.5 C95.5666667,57.8333333 96.85,56.9166667 97.95,55.75 C99.05,54.5833333 99.9166667,53.1666667 100.55,51.5 C101.183333,49.8333333 101.5,48 101.5,46 L101.5,19 L115.5,19 L115.5,70 L101.5,70 L101.5,63 L101,63 C100.066667,64.6666667 98.8333333,66.1 97.3,67.3 C95.9666667,68.3666667 94.3,69.3333333 92.3,70.2 C90.3,71.0666667 87.8666667,71.5 85,71.5 Z" id="Path"></path>
                    <polygon id="Path" points="129 32 122.5 32 122.5 20 129 20 129 0 157.5 0 157.5 12 143 12 143 20 154.5 20 154.5 32 143 32 143 70 129 70"></polygon>
                    <path d="M191.5,0 L224.5,0 C228.766667,0 232.6,0.616666667 236,1.85 C239.4,3.08333333 242.283333,4.76666667 244.65,6.9 C247.016667,9.03333333 248.833333,11.5166667 250.1,14.35 C251.366667,17.1833333 252,20.2333333 252,23.5 C252,26.2333333 251.583333,28.7333333 250.75,31 C249.916667,33.2666667 248.783333,35.2833333 247.35,37.05 C245.916667,38.8166667 244.233333,40.3666667 242.3,41.7 C240.366667,43.0333333 238.266667,44.1333333 236,45 L252,70 L235,70 L220.5,47 L206.5,47 L206.5,70 L191.5,70 L191.5,0 Z M224,33 C228.266667,33 231.416667,32.1166667 233.45,30.35 C235.483333,28.5833333 236.5,26.3 236.5,23.5 C236.5,20.7 235.483333,18.4166667 233.45,16.65 C231.416667,14.8833333 228.266667,14 224,14 L206.5,14 L206.5,33 L224,33 Z" id="Shape"></path>
                    <path d="M283.5,71.5 C279.633333,71.5 276.016667,70.8 272.65,69.4 C269.283333,68 266.366667,66.0833333 263.9,63.65 C261.433333,61.2166667 259.5,58.35 258.1,55.05 C256.7,51.75 256,48.2333333 256,44.5 C256,40.7666667 256.7,37.25 258.1,33.95 C259.5,30.65 261.433333,27.7833333 263.9,25.35 C266.366667,22.9166667 269.283333,21 272.65,19.6 C276.016667,18.2 279.633333,17.5 283.5,17.5 C287.5,17.5 291.15,18.2 294.45,19.6 C297.75,21 300.6,22.9333333 303,25.4 C305.4,27.8666667 307.25,30.7333333 308.55,34 C309.85,37.2666667 310.5,40.7666667 310.5,44.5 L310.5,47.5 L270.5,47.5 C270.766667,49.1 271.283333,50.6333333 272.05,52.1 C272.816667,53.5666667 273.783333,54.85 274.95,55.95 C276.116667,57.05 277.433333,57.9166667 278.9,58.55 C280.366667,59.1833333 281.9,59.5 283.5,59.5 C285.766667,59.5 287.616667,59.1833333 289.05,58.55 C290.483333,57.9166667 291.666667,57.2333333 292.6,56.5 C293.6,55.6333333 294.4,54.6333333 295,53.5 L310,53.5 C308.933333,56.8333333 307.266667,59.8333333 305,62.5 C304,63.6333333 302.833333,64.7333333 301.5,65.8 C300.166667,66.8666667 298.633333,67.8333333 296.9,68.7 C295.166667,69.5666667 293.183333,70.25 290.95,70.75 C288.716667,71.25 286.233333,71.5 283.5,71.5 Z M295.5,39 C295.233333,37.7333333 294.766667,36.5333333 294.1,35.4 C293.433333,34.2666667 292.583333,33.2666667 291.55,32.4 C290.516667,31.5333333 289.316667,30.8333333 287.95,30.3 C286.583333,29.7666667 285.1,29.5 283.5,29.5 C280.233333,29.5 277.516667,30.45 275.35,32.35 C273.183333,34.25 271.733333,36.4666667 271,39 L295.5,39 Z" id="Shape"></path>
                    <path d="M343.5,71.5 C339.633333,71.5 336.016667,70.8 332.65,69.4 C329.283333,68 326.366667,66.0833333 323.9,63.65 C321.433333,61.2166667 319.5,58.35 318.1,55.05 C316.7,51.75 316,48.2333333 316,44.5 C316,40.7666667 316.7,37.25 318.1,33.95 C319.5,30.65 321.433333,27.7833333 323.9,25.35 C326.366667,22.9166667 329.283333,21 332.65,19.6 C336.016667,18.2 339.633333,17.5 343.5,17.5 C346.233333,17.5 348.7,17.7833333 350.9,18.35 C353.1,18.9166667 355.066667,19.6666667 356.8,20.6 C358.533333,21.5333333 360.05,22.6 361.35,23.8 C362.65,25 363.766667,26.2333333 364.7,27.5 C366.9,30.4333333 368.5,33.7666667 369.5,37.5 L355,37.5 C354.4,36.0333333 353.6,34.7 352.6,33.5 C351.666667,32.5 350.483333,31.5833333 349.05,30.75 C347.616667,29.9166667 345.766667,29.5 343.5,29.5 C341.766667,29.5 340.116667,29.8666667 338.55,30.6 C336.983333,31.3333333 335.6,32.35 334.4,33.65 C333.2,34.95 332.25,36.5166667 331.55,38.35 C330.85,40.1833333 330.5,42.2333333 330.5,44.5 C330.5,46.7666667 330.85,48.8166667 331.55,50.65 C332.25,52.4833333 333.2,54.05 334.4,55.35 C335.6,56.65 336.983333,57.6666667 338.55,58.4 C340.116667,59.1333333 341.766667,59.5 343.5,59.5 C345.766667,59.5 347.616667,59.0833333 349.05,58.25 C350.483333,57.4166667 351.666667,56.5 352.6,55.5 C353.6,54.3 354.4,52.9666667 355,51.5 L369.5,51.5 C368.633333,55.2333333 367.1,58.5666667 364.9,61.5 C363.966667,62.7666667 362.85,64 361.55,65.2 C360.25,66.4 358.733333,67.4666667 357,68.4 C355.266667,69.3333333 353.283333,70.0833333 351.05,70.65 C348.816667,71.2166667 346.3,71.5 343.5,71.5 Z" id="Path"></path>
                    <path d="M377.5,0 L391.5,0 L391.5,26 L392,26 C392.933333,24.4 394.166667,23 395.7,21.8 C397.033333,20.7333333 398.683333,19.75 400.65,18.85 C402.616667,17.95 405.066667,17.5 408,17.5 C414.266667,17.5 419.166667,19.3166667 422.7,22.95 C426.233333,26.5833333 428,31.9333333 428,39 L428,70 L414,70 L414,41 C414,37.2 413.066667,34.3333333 411.2,32.4 C409.333333,30.4666667 406.766667,29.5 403.5,29.5 C401.9,29.5 400.366667,29.8333333 398.9,30.5 C397.433333,31.1666667 396.15,32.0833333 395.05,33.25 C393.95,34.4166667 393.083333,35.8333333 392.45,37.5 C391.816667,39.1666667 391.5,41 391.5,43 L391.5,70 L377.5,70 L377.5,0 Z" id="Path"></path>
                    <path d="M438.5,19 L452.5,19 L452.5,26 L453,26 C453.933333,24.4 455.166667,23 456.7,21.8 C458.033333,20.7333333 459.683333,19.75 461.65,18.85 C463.616667,17.95 466.066667,17.5 469,17.5 C475.266667,17.5 480.166667,19.3166667 483.7,22.95 C487.233333,26.5833333 489,31.9333333 489,39 L489,70 L475,70 L475,41 C475,37.2 474.066667,34.3333333 472.2,32.4 C470.333333,30.4666667 467.766667,29.5 464.5,29.5 C462.9,29.5 461.366667,29.8333333 459.9,30.5 C458.433333,31.1666667 457.15,32.0833333 456.05,33.25 C454.95,34.4166667 454.083333,35.8333333 453.45,37.5 C452.816667,39.1666667 452.5,41 452.5,43 L452.5,70 L438.5,70 L438.5,19 Z" id="Path"></path>
                    <path d="M519.5,71.5 C513.233333,71.5 508.333333,69.6833333 504.8,66.05 C501.266667,62.4166667 499.5,57.0666667 499.5,50 L499.5,19 L513.5,19 L513.5,48 C513.5,51.8 514.433333,54.6666667 516.3,56.6 C518.166667,58.5333333 520.733333,59.5 524,59.5 C525.6,59.5 527.133333,59.1666667 528.6,58.5 C530.066667,57.8333333 531.35,56.9166667 532.45,55.75 C533.55,54.5833333 534.416667,53.1666667 535.05,51.5 C535.683333,49.8333333 536,48 536,46 L536,19 L550,19 L550,70 L536,70 L536,63 L535.5,63 C534.566667,64.6666667 533.333333,66.1 531.8,67.3 C530.466667,68.3666667 528.8,69.3333333 526.8,70.2 C524.8,71.0666667 522.366667,71.5 519.5,71.5 Z" id="Path"></path>
                    <path d="M561,19 L575,19 L575,26 L575.5,26 C576.433333,24.4 577.666667,23 579.2,21.8 C580.533333,20.7333333 582.183333,19.75 584.15,18.85 C586.116667,17.95 588.566667,17.5 591.5,17.5 C597.766667,17.5 602.666667,19.3166667 606.2,22.95 C609.733333,26.5833333 611.5,31.9333333 611.5,39 L611.5,70 L597.5,70 L597.5,41 C597.5,37.2 596.566667,34.3333333 594.7,32.4 C592.833333,30.4666667 590.266667,29.5 587,29.5 C585.4,29.5 583.866667,29.8333333 582.4,30.5 C580.933333,31.1666667 579.65,32.0833333 578.55,33.25 C577.45,34.4166667 576.583333,35.8333333 575.95,37.5 C575.316667,39.1666667 575,41 575,43 L575,70 L561,70 L561,19 Z" id="Path"></path>
                    <path d="M627,77 L659.5,77 L659.5,62.4 L659,62.4 C657.933333,63.9333333 656.633333,65.3 655.1,66.5 C653.766667,67.5 652.116667,68.4166667 650.15,69.25 C648.183333,70.0833333 645.8,70.5 643,70.5 C639.733333,70.5 636.683333,69.8666667 633.85,68.6 C631.016667,67.3333333 628.533333,65.5333333 626.4,63.2 C624.266667,60.8666667 622.583333,58.0833333 621.35,54.85 C620.116667,51.6166667 619.5,48 619.5,44 C619.5,40 620.116667,36.3833333 621.35,33.15 C622.583333,29.9166667 624.266667,27.1333333 626.4,24.8 C628.533333,22.4666667 631.016667,20.6666667 633.85,19.4 C636.683333,18.1333333 639.733333,17.5 643,17.5 C645.8,17.5 648.183333,17.9333333 650.15,18.8 C652.116667,19.6666667 653.766667,20.6 655.1,21.6 C656.633333,22.8 657.933333,24.1333333 659,25.6 L659.5,25.6 L659.5,19 L673.5,19 L673.5,89 L627,89 L627,77 Z M647,58.5 C650.533333,58.5 653.5,57.2166667 655.9,54.65 C658.3,52.0833333 659.5,48.5333333 659.5,44 C659.5,39.4666667 658.3,35.9166667 655.9,33.35 C653.5,30.7833333 650.533333,29.5 647,29.5 C643.2,29.5 640.083333,30.7833333 637.65,33.35 C635.216667,35.9166667 634,39.4666667 634,44 C634,48.5333333 635.216667,52.0833333 637.65,54.65 C640.083333,57.2166667 643.2,58.5 647,58.5 Z" id="Shape"></path>
                </g>
                <path d="M537.33,0.000159024385 C546.045674,2.89374734 555.136536,6.16093846 564.6,9.80073239 C563.533333,31.6673991 559.8,52.4673991 553.4,72.2007324 C547,91.9340657 540.066667,108.734066 532.6,122.600732 L530.242798,121.780431 C509.927846,114.75199 492.580247,109.825424 478.2,107.000732 C463.266667,104.067399 447.266667,102.600732 430.2,102.600732 C402.466667,102.600732 380.866667,109.134066 365.4,122.200732 C349.933333,135.267399 338.466667,154.600732 331,180.200732 L476.6,180.200732 C479.266667,189.267399 480.6,201.267399 480.6,216.200732 L480.594711,217.873195 C480.501267,232.515796 479.169697,243.691641 476.6,251.400732 L320.6,251.400732 L320.6,293.400732 C320.6,298.467399 320.866667,303.134066 321.4,307.400732 L476.6,307.400732 C479.266667,316.467399 480.6,328.467399 480.6,343.400732 L480.594711,345.073195 C480.501267,359.715796 479.169697,370.891641 476.6,378.600732 L332.6,378.600732 C340.066667,401.534066 351.933333,418.467399 368.2,429.400732 C376.636487,435.071158 386.758606,439.271139 398.566356,442.000675 L205.557357,442.00135 C196.846767,422.512939 190.127648,401.3794 185.4,378.600732 L115.8,378.600732 C113.181818,370.746187 111.848926,359.292832 111.8,344.240666 L111.8,343.400732 C111.8,328.467399 113.133333,316.467399 115.8,307.400732 L176.6,307.400732 C176.066667,302.600732 175.8,297.800732 175.8,293.000732 L175.8,251.400732 L115.8,251.400732 C113.181818,243.546187 111.848926,232.092832 111.8,217.040666 L111.8,216.200732 C111.8,201.267399 113.133333,189.267399 115.8,180.200732 L185.4,180.200732 C191.266667,150.867399 200.333333,124.067399 212.6,99.8007324 C224.866667,75.5340657 240.6,54.6007324 259.8,37.0007324 C276.592893,21.6072468 296.037708,9.27367076 318.134445,-1.87315441e-14 L537.33,0.000159024385 Z M539.8,426.600732 C542.242366,431.772802 544.539603,436.90617 546.691709,442.000837 L480.634683,442.002286 C483.159271,441.571708 485.681044,441.104524 488.2,440.600732 C505.533333,437.134066 522.733333,432.467399 539.8,426.600732 Z" id="Combined-Shape" fill-opacity="0.5" fill="#FF6600"></path>
            </g>
        </g>
    </g>
</svg>