<?xml version="1.0" encoding="UTF-8"?>
<svg width="980px" height="680px" viewBox="0 0 980 680" version="1.1" xmlns="http://www.w3.org/2000/svg" xmlns:xlink="http://www.w3.org/1999/xlink">
    <title>DE Vorkasse</title>
    <defs>
        <linearGradient x1="50%" y1="0%" x2="50%" y2="100%" id="linearGradient-1">
            <stop stop-color="#FFFFFF" offset="0%"></stop>
            <stop stop-color="#EDEDED" offset="100%"></stop>
        </linearGradient>
        <rect id="path-2" x="0" y="0.00154821673" width="900" height="600" rx="80"></rect>
        <filter x="-6.7%" y="-10.0%" width="113.3%" height="120.0%" filterUnits="objectBoundingBox" id="filter-3">
            <feMorphology radius="2.5" operator="dilate" in="SourceAlpha" result="shadowSpreadOuter1"></feMorphology>
            <feOffset dx="0" dy="0" in="shadowSpreadOuter1" result="shadowOffsetOuter1"></feOffset>
            <feGaussianBlur stdDeviation="17.5" in="shadowOffsetOuter1" result="shadowBlurOuter1"></feGaussianBlur>
            <feColorMatrix values="0 0 0 0 0   0 0 0 0 0   0 0 0 0 0  0 0 0 0.5 0" type="matrix" in="shadowBlurOuter1"></feColorMatrix>
        </filter>
    </defs>
    <g id="DE-Vorkasse" stroke="none" stroke-width="1" fill="none" fill-rule="evenodd">
        <g transform="translate(40, 39.9985)">
            <g id="Rectangle">
                <use fill="black" fill-opacity="1" filter="url(#filter-3)" xlink:href="#path-2"></use>
                <use fill="url(#linearGradient-1)" fill-rule="evenodd" xlink:href="#path-2"></use>
            </g>
            <path d="M900,442.001548 L900,520.001548 C900,564.184328 864.18278,600.001548 820,600.001548 L80,600.001548 C35.81722,600.001548 0,564.184328 0,520.001548 L0,442.001548 L900,442.001548 Z" id="Path" fill="#FF6600"></path>
            <g id="Vorkasse" transform="translate(225.8, 0.0008)">
                <g transform="translate(0.7, 482)" fill="#FFFFFF" fill-rule="nonzero">
                    <polygon id="Path" points="0 0 15.5 0 29.5 56 38 56 52 0 67.5 0 49.5 70 18 70"></polygon>
                    <path d="M96,71.5 C92,71.5 88.2833333,70.8 84.85,69.4 C81.4166667,68 78.45,66.0833333 75.95,63.65 C73.45,61.2166667 71.5,58.35 70.1,55.05 C68.7,51.75 68,48.2333333 68,44.5 C68,40.7666667 68.7,37.25 70.1,33.95 C71.5,30.65 73.45,27.7833333 75.95,25.35 C78.45,22.9166667 81.4166667,21 84.85,19.6 C88.2833333,18.2 92,17.5 96,17.5 C100,17.5 103.7,18.2 107.1,19.6 C110.5,21 113.45,22.9166667 115.95,25.35 C118.45,27.7833333 120.416667,30.65 121.85,33.95 C123.283333,37.25 124,40.7666667 124,44.5 C124,48.2333333 123.283333,51.75 121.85,55.05 C120.416667,58.35 118.45,61.2166667 115.95,63.65 C113.45,66.0833333 110.5,68 107.1,69.4 C103.7,70.8 100,71.5 96,71.5 Z M96,59.5 C97.8666667,59.5 99.6166667,59.1333333 101.25,58.4 C102.883333,57.6666667 104.316667,56.65 105.55,55.35 C106.783333,54.05 107.75,52.4833333 108.45,50.65 C109.15,48.8166667 109.5,46.7666667 109.5,44.5 C109.5,42.2333333 109.15,40.1833333 108.45,38.35 C107.75,36.5166667 106.783333,34.95 105.55,33.65 C104.316667,32.35 102.883333,31.3333333 101.25,30.6 C99.6166667,29.8666667 97.8666667,29.5 96,29.5 C94.1333333,29.5 92.3833333,29.8666667 90.75,30.6 C89.1166667,31.3333333 87.6833333,32.35 86.45,33.65 C85.2166667,34.95 84.25,36.5166667 83.55,38.35 C82.85,40.1833333 82.5,42.2333333 82.5,44.5 C82.5,46.7666667 82.85,48.8166667 83.55,50.65 C84.25,52.4833333 85.2166667,54.05 86.45,55.35 C87.6833333,56.65 89.1166667,57.6666667 90.75,58.4 C92.3833333,59.1333333 94.1333333,59.5 96,59.5 Z" id="Shape"></path>
                    <path d="M132,19 L146,19 L146,26.5 L146.5,26.5 C147.1,24.9 148,23.5 149.2,22.3 C150.2,21.2333333 151.533333,20.25 153.2,19.35 C154.866667,18.45 156.966667,18 159.5,18 L165.5,18 L165.5,31.5 L158,31.5 C154.2,31.5 151.25,32.5333333 149.15,34.6 C147.05,36.6666667 146,39.4666667 146,43 L146,70 L132,70 L132,19 Z" id="Path"></path>
                    <polygon id="Path" points="172.5 0 186.5 0 186.5 38 192.5 38 206 19 221.5 19 205 42.5 223 70 207 70 194 50 186.5 50 186.5 70 172.5 70"></polygon>
                    <path d="M246,71.5 C242.733333,71.5 239.683333,70.8666667 236.85,69.6 C234.016667,68.3333333 231.533333,66.5333333 229.4,64.2 C227.266667,61.8666667 225.583333,59.0333333 224.35,55.7 C223.116667,52.3666667 222.5,48.6333333 222.5,44.5 C222.5,40.3666667 223.116667,36.6333333 224.35,33.3 C225.583333,29.9666667 227.266667,27.1333333 229.4,24.8 C231.533333,22.4666667 234.016667,20.6666667 236.85,19.4 C239.683333,18.1333333 242.733333,17.5 246,17.5 C248.8,17.5 251.183333,17.9166667 253.15,18.75 C255.116667,19.5833333 256.766667,20.5 258.1,21.5 C259.633333,22.7 260.933333,24.0333333 262,25.5 L262.5,25.5 L262.5,19 L276.5,19 L276.5,70 L262.5,70 L262.5,63.5 L262,63.5 C260.933333,64.9666667 259.633333,66.3 258.1,67.5 C256.766667,68.5 255.116667,69.4166667 253.15,70.25 C251.183333,71.0833333 248.8,71.5 246,71.5 Z M249.5,59.5 C253.3,59.5 256.416667,58.2 258.85,55.6 C261.283333,53 262.5,49.3 262.5,44.5 C262.5,39.7 261.283333,36 258.85,33.4 C256.416667,30.8 253.3,29.5 249.5,29.5 C245.966667,29.5 243,30.8 240.6,33.4 C238.2,36 237,39.7 237,44.5 C237,49.3 238.2,53 240.6,55.6 C243,58.2 245.966667,59.5 249.5,59.5 Z" id="Shape"></path>
                    <path d="M309.5,71.5 C306.766667,71.5 304.3,71.25 302.1,70.75 C299.9,70.25 297.95,69.5666667 296.25,68.7 C294.55,67.8333333 293.05,66.8666667 291.75,65.8 C290.45,64.7333333 289.366667,63.6333333 288.5,62.5 C286.366667,59.8333333 284.866667,56.8333333 284,53.5 L298.5,53.5 C299.033333,54.7666667 299.766667,55.8666667 300.7,56.8 C301.5,57.6 302.6,58.3333333 304,59 C305.4,59.6666667 307.233333,60 309.5,60 C312.766667,60 315,59.55 316.2,58.65 C317.4,57.75 318,56.5333333 318,55 C318,53.6666667 317.216667,52.6666667 315.65,52 C314.083333,51.3333333 312.133333,50.7333333 309.8,50.2 C307.466667,49.6666667 304.95,49.1 302.25,48.5 C299.55,47.9 297.033333,47 294.7,45.8 C292.366667,44.6 290.416667,43 288.85,41 C287.283333,39 286.5,36.3333333 286.5,33 C286.5,31 286.966667,29.0666667 287.9,27.2 C288.833333,25.3333333 290.2,23.6833333 292,22.25 C293.8,20.8166667 296.033333,19.6666667 298.7,18.8 C301.366667,17.9333333 304.466667,17.5 308,17.5 C310.666667,17.5 313.066667,17.7333333 315.2,18.2 C317.333333,18.6666667 319.216667,19.3 320.85,20.1 C322.483333,20.9 323.9,21.8 325.1,22.8 C326.3,23.8 327.3,24.8 328.1,25.8 C330.033333,28.2 331.333333,30.9333333 332,34 L318,34 C317.6,33.0666667 317,32.2333333 316.2,31.5 C315.466667,30.9 314.45,30.3333333 313.15,29.8 C311.85,29.2666667 310.133333,29 308,29 C305.466667,29 303.666667,29.4166667 302.6,30.25 C301.533333,31.0833333 301,32 301,33 C301,34.3333333 301.783333,35.3333333 303.35,36 C304.916667,36.6666667 306.866667,37.2666667 309.2,37.8 C311.533333,38.3333333 314.05,38.9 316.75,39.5 C319.45,40.1 321.966667,41 324.3,42.2 C326.633333,43.4 328.583333,45 330.15,47 C331.716667,49 332.5,51.6666667 332.5,55 C332.5,57.1333333 332,59.1833333 331,61.15 C330,63.1166667 328.533333,64.8666667 326.6,66.4 C324.666667,67.9333333 322.266667,69.1666667 319.4,70.1 C316.533333,71.0333333 313.233333,71.5 309.5,71.5 Z" id="Path"></path>
                    <path d="M362.5,71.5 C359.766667,71.5 357.3,71.25 355.1,70.75 C352.9,70.25 350.95,69.5666667 349.25,68.7 C347.55,67.8333333 346.05,66.8666667 344.75,65.8 C343.45,64.7333333 342.366667,63.6333333 341.5,62.5 C339.366667,59.8333333 337.866667,56.8333333 337,53.5 L351.5,53.5 C352.033333,54.7666667 352.766667,55.8666667 353.7,56.8 C354.5,57.6 355.6,58.3333333 357,59 C358.4,59.6666667 360.233333,60 362.5,60 C365.766667,60 368,59.55 369.2,58.65 C370.4,57.75 371,56.5333333 371,55 C371,53.6666667 370.216667,52.6666667 368.65,52 C367.083333,51.3333333 365.133333,50.7333333 362.8,50.2 C360.466667,49.6666667 357.95,49.1 355.25,48.5 C352.55,47.9 350.033333,47 347.7,45.8 C345.366667,44.6 343.416667,43 341.85,41 C340.283333,39 339.5,36.3333333 339.5,33 C339.5,31 339.966667,29.0666667 340.9,27.2 C341.833333,25.3333333 343.2,23.6833333 345,22.25 C346.8,20.8166667 349.033333,19.6666667 351.7,18.8 C354.366667,17.9333333 357.466667,17.5 361,17.5 C363.666667,17.5 366.066667,17.7333333 368.2,18.2 C370.333333,18.6666667 372.216667,19.3 373.85,20.1 C375.483333,20.9 376.9,21.8 378.1,22.8 C379.3,23.8 380.3,24.8 381.1,25.8 C383.033333,28.2 384.333333,30.9333333 385,34 L371,34 C370.6,33.0666667 370,32.2333333 369.2,31.5 C368.466667,30.9 367.45,30.3333333 366.15,29.8 C364.85,29.2666667 363.133333,29 361,29 C358.466667,29 356.666667,29.4166667 355.6,30.25 C354.533333,31.0833333 354,32 354,33 C354,34.3333333 354.783333,35.3333333 356.35,36 C357.916667,36.6666667 359.866667,37.2666667 362.2,37.8 C364.533333,38.3333333 367.05,38.9 369.75,39.5 C372.45,40.1 374.966667,41 377.3,42.2 C379.633333,43.4 381.583333,45 383.15,47 C384.716667,49 385.5,51.6666667 385.5,55 C385.5,57.1333333 385,59.1833333 384,61.15 C383,63.1166667 381.533333,64.8666667 379.6,66.4 C377.666667,67.9333333 375.266667,69.1666667 372.4,70.1 C369.533333,71.0333333 366.233333,71.5 362.5,71.5 Z" id="Path"></path>
                    <path d="M418,71.5 C414.133333,71.5 410.516667,70.8 407.15,69.4 C403.783333,68 400.866667,66.0833333 398.4,63.65 C395.933333,61.2166667 394,58.35 392.6,55.05 C391.2,51.75 390.5,48.2333333 390.5,44.5 C390.5,40.7666667 391.2,37.25 392.6,33.95 C394,30.65 395.933333,27.7833333 398.4,25.35 C400.866667,22.9166667 403.783333,21 407.15,19.6 C410.516667,18.2 414.133333,17.5 418,17.5 C422,17.5 425.65,18.2 428.95,19.6 C432.25,21 435.1,22.9333333 437.5,25.4 C439.9,27.8666667 441.75,30.7333333 443.05,34 C444.35,37.2666667 445,40.7666667 445,44.5 L445,47.5 L405,47.5 C405.266667,49.1 405.783333,50.6333333 406.55,52.1 C407.316667,53.5666667 408.283333,54.85 409.45,55.95 C410.616667,57.05 411.933333,57.9166667 413.4,58.55 C414.866667,59.1833333 416.4,59.5 418,59.5 C420.266667,59.5 422.116667,59.1833333 423.55,58.55 C424.983333,57.9166667 426.166667,57.2333333 427.1,56.5 C428.1,55.6333333 428.9,54.6333333 429.5,53.5 L444.5,53.5 C443.433333,56.8333333 441.766667,59.8333333 439.5,62.5 C438.5,63.6333333 437.333333,64.7333333 436,65.8 C434.666667,66.8666667 433.133333,67.8333333 431.4,68.7 C429.666667,69.5666667 427.683333,70.25 425.45,70.75 C423.216667,71.25 420.733333,71.5 418,71.5 Z M430,39 C429.733333,37.7333333 429.266667,36.5333333 428.6,35.4 C427.933333,34.2666667 427.083333,33.2666667 426.05,32.4 C425.016667,31.5333333 423.816667,30.8333333 422.45,30.3 C421.083333,29.7666667 419.6,29.5 418,29.5 C414.733333,29.5 412.016667,30.45 409.85,32.35 C407.683333,34.25 406.233333,36.4666667 405.5,39 L430,39 Z" id="Shape"></path>
                </g>
                <path d="M425.53,0.000159024385 C434.245674,2.89374734 443.336536,6.16093846 452.8,9.80073239 C451.733333,31.6673991 448,52.4673991 441.6,72.2007324 C435.2,91.9340657 428.266667,108.734066 420.8,122.600732 L418.442798,121.780431 C398.127846,114.75199 380.780247,109.825424 366.4,107.000732 C351.466667,104.067399 335.466667,102.600732 318.4,102.600732 C290.666667,102.600732 269.066667,109.134066 253.6,122.200732 C238.133333,135.267399 226.666667,154.600732 219.2,180.200732 L364.8,180.200732 C367.466667,189.267399 368.8,201.267399 368.8,216.200732 L368.794711,217.873195 C368.701267,232.515796 367.369697,243.691641 364.8,251.400732 L208.8,251.400732 L208.8,293.400732 C208.8,298.467399 209.066667,303.134066 209.6,307.400732 L364.8,307.400732 C367.466667,316.467399 368.8,328.467399 368.8,343.400732 L368.794711,345.073195 C368.701267,359.715796 367.369697,370.891641 364.8,378.600732 L220.8,378.600732 C228.266667,401.534066 240.133333,418.467399 256.4,429.400732 C264.836487,435.071158 274.958606,439.271139 286.766356,442.000675 L93.7573571,442.00135 C85.046767,422.512939 78.327648,401.3794 73.6,378.600732 L4,378.600732 C1.38181818,370.746187 0.0489256198,359.292832 0,344.240666 L0,343.400732 C0,328.467399 1.33333333,316.467399 4,307.400732 L64.8,307.400732 C64.2666667,302.600732 64,297.800732 64,293.000732 L64,251.400732 L4,251.400732 C1.38181818,243.546187 0.0489256198,232.092832 0,217.040666 L0,216.200732 C0,201.267399 1.33333333,189.267399 4,180.200732 L73.6,180.200732 C79.4666667,150.867399 88.5333333,124.067399 100.8,99.8007324 C113.066667,75.5340657 128.8,54.6007324 148,37.0007324 C164.792893,21.6072468 184.237708,9.27367076 206.334445,-1.87315441e-14 L425.53,0.000159024385 Z M428,426.600732 C430.442366,431.772802 432.739603,436.90617 434.891709,442.000837 L368.834683,442.002286 C371.359271,441.571708 373.881044,441.104524 376.4,440.600732 C393.733333,437.134066 410.933333,432.467399 428,426.600732 Z" id="Combined-Shape" fill-opacity="0.5" fill="#FF6600"></path>
            </g>
        </g>
    </g>
</svg>