<svg xmlns="http://www.w3.org/2000/svg" xmlns:xlink="http://www.w3.org/1999/xlink" width="980" height="680" viewBox="0 0 980 680">
  <defs>
    <filter id="a" width="113.3%" height="120%" x="-6.7%" y="-10%" filterUnits="objectBoundingBox">
      <feMorphology in="SourceAlpha" operator="dilate" radius="2.5" result="shadowSpreadOuter1"/>
      <feOffset in="shadowSpreadOuter1" result="shadowOffsetOuter1"/>
      <feGaussianBlur in="shadowOffsetOuter1" result="shadowBlurOuter1" stdDeviation="17.5"/>
      <feColorMatrix in="shadowBlurOuter1" values="0 0 0 0 0 0 0 0 0 0 0 0 0 0 0 0 0 0 0.5 0"/>
    </filter>
    <rect id="b" width="900" height="600" x="0" y="0" rx="80"/>
  </defs>
  <g fill="none" fill-rule="evenodd">
    <g transform="translate(40 40)">
      <use xlink:href="#b" fill="#000" filter="url(#a)"/>
      <use xlink:href="#b" fill="#FFB3C7"/>
    </g>
    <path fill="#FFF" fill-rule="nonzero" d="M186.709 600.658h-26.271l-20.984-40.15c-16.027 5.783-19.661 11.236-19.661 25.114v15.036H96V485h44.115c25.94 0 41.141 13.218 41.141 35.854a32.653 32.653 0 0 1-19.992 31.558l25.445 48.246Zm-66.916-54.36a62.373 62.373 0 0 1 17.183-7.93l4.957-1.652c10.905-3.635 15.696-8.427 15.696-16.192 0-8.923-6.278-13.714-18.01-13.714h-19.826v39.489Zm150.634 13.714a36.02 36.02 0 0 1-.33 5.618 229.684 229.684 0 0 0-56.177 6.61 20.767 20.767 0 0 0 19 10.408 30.433 30.433 0 0 0 21.315-8.922l11.73 15.366a44.828 44.828 0 0 1-33.044 13.714 41.792 41.792 0 0 1-43.29-42.298 41.069 41.069 0 0 1 41.802-41.967 38.436 38.436 0 0 1 38.994 41.471Zm-39.654-21.314c-9.937-.104-18.283 7.451-19.167 17.35a156.376 156.376 0 0 1 36.02-5.619 16.492 16.492 0 0 0-16.853-11.73Zm88.83 64.108a39.737 39.737 0 0 0 37.34-21.149l-19.662-10.079a20.003 20.003 0 0 1-17.679 9.749c-11.406 0-20.653-9.247-20.653-20.654 0-11.406 9.247-20.653 20.653-20.653a20.003 20.003 0 0 1 17.68 9.748l19.661-10.078a39.737 39.737 0 0 0-37.34-21.15 42.143 42.143 0 1 0 0 84.266Zm94.457-83.935a31.207 31.207 0 0 0-23.628 9.418V485h-22.47v115.658h22.47v-41.967a18.206 18.206 0 1 1 36.35 0v41.967h22.47V554.56a33.696 33.696 0 0 0-35.192-35.689Zm98.918 0a31.166 31.166 0 0 0-24.618 10.41v-8.592h-21.81v79.969h22.47v-41.967a18.206 18.206 0 1 1 36.35 0v41.967h22.47V554.56a33.51 33.51 0 0 0-34.862-35.689Zm107.17 1.818v42.793a17.38 17.38 0 1 1-34.698 0V520.69h-22.47v46.924a33.045 33.045 0 0 0 34.532 34.863 29.4 29.4 0 0 0 23.297-9.749v7.931h21.81v-79.97h-22.471Zm87.518-1.818a31.166 31.166 0 0 0-24.619 10.41v-8.592h-21.81v79.969h22.471v-41.967a18.206 18.206 0 1 1 36.35 0v41.967h22.47V554.56a33.51 33.51 0 0 0-34.862-35.689Zm137.086-5.783a46.17 46.17 0 0 1-11.732 31.724 67.35 67.35 0 0 1 4.296 25.28c0 27.427-11.896 60.802-52.376 60.802-5.006.056-10-.498-14.87-1.652v-20.818a56.456 56.456 0 0 0 14.044 1.652c13.383 0 24.949-4.13 29.08-18.67a29.204 29.204 0 0 1-19.993 6.608 38.508 38.508 0 0 1-39.82-38.828 42.03 42.03 0 0 1 66.091-32.55 25.558 25.558 0 0 0 3.304-13.548h21.976Zm-50.064 64.934c10.563-.091 19.061-8.712 19.001-19.275-.06-10.564-8.657-19.087-19.22-19.057-10.564.03-19.112 8.602-19.112 19.166a18.805 18.805 0 0 0 19.331 19.166Zm74.29 23.958c8.304 0 15.035-6.732 15.035-15.036 0-8.304-6.731-15.035-15.035-15.035s-15.036 6.731-15.036 15.035c.029 8.292 6.744 15.008 15.036 15.036Z"/>
    <g fill="#FFF" fill-rule="nonzero">
      <path d="M514.676 331.995c.012.028-.041-.134-.15-.462l-.108-.321a2740.003 2740.003 0 0 0-7.008-20.533l-.424-1.225-.424-1.223c-2.825-8.136-5.572-15.875-6.708-18.576-3.923-9.32-6.868-12.869-9.727-13.274a6.939 6.939 0 0 1-.568.023c-3.03 0-6.101 3.386-10.284 13.314-1.174 2.783-4.051 10.898-6.962 19.29l-.623 1.8-.415 1.2c-3.653 10.58-7.043 20.643-6.815 20.026l-.162.463a347.518 347.518 0 0 0-2.573 7.7l-2.642 8.198c-17.057 52.68-40.572 70.346-120.038 70.293-45.489 0-75.43-18.839-92.225-52.198-11.585-23.012-15.37-45.96-17.277-82.632a93.158 93.158 0 0 0-10.704-33.915 6.982 6.982 0 0 1-.839-3.323v-22.184a7.129 7.129 0 0 1 6.395-7.024A1205.216 1205.216 0 0 1 353.187 210c28.746 0 49.672.944 78.02 3.04l13.01.975c4.16.312 8.323.602 12.486.87a496.088 496.088 0 0 0 32.856 1.154c.121 0 .242.003.362.009 10.591-.008 20.625-.395 32.494-1.152 3.722-.241 7.57-.514 12.497-.88l13-.976c28.358-2.096 49.273-3.04 78.05-3.04a1205.11 1205.11 0 0 1 128.761 7.422 7.129 7.129 0 0 1 6.395 7.025v22.173c0 1.16-.286 2.302-.839 3.323a92.917 92.917 0 0 0-10.672 33.495c-1.94 37.092-5.724 60.04-17.309 83.042-16.794 33.359-46.736 52.208-92.214 52.208-79.404 0-102.929-17.738-120.08-70.513-.127-.412-.62-1.945-1.154-3.604l-.202-.626a939.87 939.87 0 0 0-1.265-3.895 427.455 427.455 0 0 0-2.757-8.198Zm13.789-4.144c.841 2.412 1.684 4.91 2.651 7.89l2.632 8.146c7.716 23.756 13.293 34.24 25.14 43.151 15.337 11.553 40.572 17.508 81.196 17.508 39.911 0 64.894-15.726 79.288-44.325 10.452-20.737 13.996-42.28 15.872-77.936a107.08 107.08 0 0 1 11.47-37.395v-14.122h-.011a1190.287 1190.287 0 0 0-120.772-6.626c-28.337 0-48.917.923-76.93 2.999l-13.01.985c-4.958.357-8.858.64-12.633.88-12.307.787-22.739 1.175-33.799 1.175l.37.001c-.123.006-.246.01-.37.01-11.05 0-21.492-.399-33.8-1.185-3.773-.252-7.673-.514-12.643-.88l-13-.986c-28.012-2.076-48.591-2.999-76.897-2.999-40.354.16-80.674 2.372-120.804 6.626v14.122a107.458 107.458 0 0 1 11.5 37.814c1.835 35.236 5.39 56.78 15.831 77.517 14.405 28.6 39.377 44.325 79.299 44.325 40.655.02 65.91-5.892 81.227-17.393 11.815-8.88 17.393-19.332 25.067-43.035l2.652-8.22c.978-3.009 1.821-5.545 2.662-7.979l.171-.495-.014.041c-.33.917 3.29-9.83 7.146-20.967l.843-2.432c2.885-8.3 5.75-16.363 7.055-19.518l.096-.23c5.985-14.204 12.38-21.535 22.475-22.04.37-.06.748-.09 1.134-.09 10.767 0 17.413 7.328 23.62 22.058 1.26 3 4.22 11.338 7.192 19.9l.435 1.253a2491.88 2491.88 0 0 1 7.296 21.364l.101.303c.116.349.155.474.105.336Zm-97.373-72.73c13.523 8.629 11.773 21.513 0 58.29l-3.188 7.968c-11.71 37.846-18.346 58.76-86.7 58.76h-.734a63.468 63.468 0 0 1-46.505-17.926c-24.104-23.963-24.692-63.105-24.7-67.96V293.827a196.192 196.192 0 0 1-.88-19.322 22.351 22.351 0 0 1 5.116-16.847 23.221 23.221 0 0 1 15.861-8.177c17.466-1.93 44.263-2.862 61.854-3.062 45.216-.524 69.853 2.191 79.876 8.702Zm-64.307 4.079-68.5 83.995a6.982 6.982 0 0 0 1.131 9.939 7.307 7.307 0 0 0 10.128-1.111l68.49-83.985a6.982 6.982 0 0 0-1.122-9.939 7.307 7.307 0 0 0-10.127 1.101Zm-35.289-3.963a7.307 7.307 0 0 0-10.127 1.111l-39.314 48.204a6.982 6.982 0 0 0 1.112 9.939 7.307 7.307 0 0 0 10.137-1.111l39.314-48.204a6.982 6.982 0 0 0-1.122-9.939Z"/>
      <path d="M637.715 380.14c-68.354 0-74.99-20.915-86.973-58.688l-2.642-8.303c-11.972-36.787-13.524-49.598 0-58.29 10.022-6.646 34.66-9.235 79.865-8.7 17.665 0 44.398 1.121 61.854 3.05a23.347 23.347 0 0 1 15.935 8.314 22.477 22.477 0 0 1 5.053 16.983 140.23 140.23 0 0 1-.944 19.92c0 1.194.399 42.888-24.71 67.86a63.468 63.468 0 0 1-46.558 17.927h-.88v-.073ZM597.98 256.348l-39.324 48.204a6.982 6.982 0 0 0 1.122 9.939 7.307 7.307 0 0 0 10.127-1.111l39.314-48.204a6.982 6.982 0 0 0-1.111-9.939 7.307 7.307 0 0 0-10.138 1.111h.01Zm45.405 2.852-68.49 83.995a6.982 6.982 0 0 0 1.122 9.939 7.307 7.307 0 0 0 10.138-1.111l68.49-83.985a6.982 6.982 0 0 0-1.132-9.939 7.307 7.307 0 0 0-10.128 1.101Z"/>
    </g>
  </g>
</svg>